<svg width="25" height="25" viewBox="0 0 25 25" fill="none" xmlns="http://www.w3.org/2000/svg">
<path d="M12.6713 10.6543H12.6803M16.6668 10.6543H16.6758M8.67578 10.6543H8.68475" stroke="#020202" stroke-width="2" stroke-linecap="round" stroke-linejoin="round"/>
<path d="M22.666 10.6543C22.666 9.88351 22.6525 9.13109 22.6269 8.4046C22.5432 6.03113 22.5013 4.84439 21.5359 3.87175C20.5706 2.89911 19.3503 2.8469 16.9098 2.74249C15.5708 2.6852 14.1451 2.6543 12.666 2.6543C11.1869 2.6543 9.76119 2.6852 8.42222 2.74249C5.98172 2.8469 4.76147 2.89911 3.79609 3.87175C2.83071 4.84439 2.78884 6.03113 2.70511 8.4046C2.67948 9.13109 2.66602 9.88351 2.66602 10.6543C2.66602 11.4251 2.67948 12.1775 2.70511 12.904C2.78884 15.2775 2.83071 16.4642 3.79609 17.4369C4.76147 18.4095 5.98175 18.4617 8.42232 18.5661C9.15622 18.5975 9.91618 18.621 10.6967 18.6358C11.4378 18.6498 11.8084 18.6569 12.134 18.7809C12.4596 18.9049 12.7335 19.1398 13.2815 19.6096L15.461 21.4785C15.5933 21.5919 15.7618 21.6543 15.9361 21.6543C16.3392 21.6543 16.666 21.3275 16.666 20.9244V18.5762C16.7476 18.5729 16.8289 18.5696 16.9098 18.5661C19.3503 18.4617 20.5706 18.4095 21.5359 17.4368C22.5013 16.4642 22.5432 15.2775 22.6269 12.904C22.6525 12.1775 22.666 11.4251 22.666 10.6543Z" stroke="#020202" stroke-width="1.5" stroke-linecap="round" stroke-linejoin="round"/>
</svg>
