<svg width="14" height="20" viewBox="0 0 14 20" fill="none" xmlns="http://www.w3.org/2000/svg">
<path fill-rule="evenodd" clip-rule="evenodd" d="M2.15087 8.61043C1.33607 8.61043 1.16602 8.77035 1.16602 9.53635V10.9253C1.16602 11.6913 1.33607 11.8512 2.15087 11.8512H4.12056V17.4068C4.12056 18.1728 4.29061 18.3327 5.10541 18.3327H7.0751C7.88993 18.3327 8.05993 18.1728 8.05993 17.4068V11.8512H10.2716C10.8896 11.8512 11.0489 11.7383 11.2186 11.1797L11.6407 9.79077C11.9314 8.83385 11.7523 8.61043 10.6937 8.61043H8.05993V6.29565C8.05993 5.78427 8.50085 5.36972 9.04477 5.36972H11.8478C12.6626 5.36972 12.8327 5.20984 12.8327 4.44379V2.59194C12.8327 1.82589 12.6626 1.66602 11.8478 1.66602H9.04477C6.32518 1.66602 4.12056 3.73877 4.12056 6.29565V8.61043H2.15087Z" stroke="#020202" stroke-width="1.5" stroke-linejoin="round"/>
</svg>
