<svg width="25" height="24" viewBox="0 0 25 24" fill="none" xmlns="http://www.w3.org/2000/svg">
<path d="M3.5 11.9896V14.5C3.5 17.7998 3.5 19.4497 4.52513 20.4749C5.55025 21.5 7.20017 21.5 10.5 21.5H14.5C17.7998 21.5 19.4497 21.5 20.4749 20.4749C21.5 19.4497 21.5 17.7998 21.5 14.5V11.9896C21.5 10.3083 21.5 9.46773 21.1441 8.74005C20.7882 8.01237 20.1247 7.49628 18.7976 6.46411L16.7976 4.90855C14.7331 3.30285 13.7009 2.5 12.5 2.5C11.2991 2.5 10.2669 3.30285 8.20242 4.90855L6.20241 6.46411C4.87533 7.49628 4.21179 8.01237 3.8559 8.74005C3.5 9.46773 3.5 10.3083 3.5 11.9896Z" stroke="#008080" stroke-width="1.5" stroke-linecap="round" stroke-linejoin="round"/>
<path d="M16.5 17H8.5" stroke="#008080" stroke-width="1.5" stroke-linecap="round" stroke-linejoin="round"/>
</svg>
