<svg width="17" height="17" viewBox="0 0 17 17" fill="none" xmlns="http://www.w3.org/2000/svg">
<path d="M5.16602 12.1543C3.94673 12.4288 3.16602 12.8505 3.16602 13.3234C3.16602 14.1505 5.55383 14.821 8.49935 14.821C11.4449 14.821 13.8327 14.1505 13.8327 13.3234C13.8327 12.8505 13.0519 12.4288 11.8327 12.1543" stroke="#636363" stroke-width="1.5" stroke-linecap="round"/>
<path d="M10.1673 6.15495C10.1673 7.07541 9.42112 7.82161 8.50065 7.82161C7.58018 7.82161 6.83398 7.07541 6.83398 6.15495C6.83398 5.23447 7.58018 4.48828 8.50065 4.48828C9.42112 4.48828 10.1673 5.23447 10.1673 6.15495Z" stroke="#636363" stroke-width="1.5"/>
<path d="M9.33892 11.8173C9.11405 12.0339 8.81352 12.1549 8.50078 12.1549C8.18798 12.1549 7.88745 12.0339 7.66258 11.8173C5.60352 9.82215 2.84411 7.59328 4.18979 4.35743C4.91738 2.60783 6.66394 1.48828 8.50078 1.48828C10.3376 1.48828 12.0841 2.60783 12.8117 4.35743C14.1557 7.58921 11.4031 9.82902 9.33892 11.8173Z" stroke="#636363" stroke-width="1.5"/>
</svg>
