<svg width="24" height="25" viewBox="0 0 24 25" fill="none" xmlns="http://www.w3.org/2000/svg">
<path d="M15.5 18.5762C15.5 20.5092 13.933 22.0762 12 22.0762C10.067 22.0762 8.5 20.5092 8.5 18.5762" stroke="#020202" stroke-width="1.5" stroke-linecap="round" stroke-linejoin="round"/>
<path d="M19.2311 18.5762H4.76887C3.79195 18.5762 3 17.7842 3 16.8073C3 16.3382 3.18636 15.8883 3.51809 15.5565L4.12132 14.9533C4.68393 14.3907 5 13.6276 5 12.832V10.0762C5 6.21018 8.13401 3.07617 12 3.07617C15.866 3.07617 19 6.21017 19 10.0762V12.832C19 13.6276 19.3161 14.3907 19.8787 14.9533L20.4819 15.5565C20.8136 15.8883 21 16.3382 21 16.8073C21 17.7842 20.208 18.5762 19.2311 18.5762Z" stroke="#020202" stroke-width="1.5" stroke-linecap="round" stroke-linejoin="round"/>
</svg>
