<svg width="24" height="25" viewBox="0 0 24 25" fill="none" xmlns="http://www.w3.org/2000/svg">
<path d="M4 18.1351V9.86183C4 6.22846 4 4.41178 5.17157 3.28304C6.34315 2.1543 8.22876 2.1543 12 2.1543C15.7712 2.1543 17.6569 2.1543 18.8284 3.28304C20 4.41178 20 6.22846 20 9.86183V18.1351C20 20.441 20 21.5939 19.2272 22.0066C17.7305 22.8057 14.9232 20.1395 13.59 19.3367C12.8168 18.8711 12.4302 18.6383 12 18.6383C11.5698 18.6383 11.1832 18.8711 10.41 19.3367C9.0768 20.1395 6.26947 22.8057 4.77285 22.0066C4 21.5939 4 20.441 4 18.1351Z" stroke="#020202" stroke-width="1.5" stroke-linecap="round" stroke-linejoin="round"/>
</svg>
