<svg width="25" height="25" viewBox="0 0 25 25" fill="none" xmlns="http://www.w3.org/2000/svg">
<path d="M21.8175 7.64139L21.3239 6.78479C20.9506 6.13696 20.764 5.81305 20.4464 5.68388C20.1288 5.55472 19.7696 5.65664 19.0513 5.86048L17.8311 6.20418C17.3725 6.30994 16.8913 6.24994 16.4726 6.03479L16.1357 5.84042C15.7766 5.61043 15.5004 5.27133 15.3475 4.87274L15.0136 3.87536C14.794 3.21534 14.6842 2.88533 14.4228 2.69657C14.1615 2.50781 13.8143 2.50781 13.1199 2.50781H12.0051C11.3108 2.50781 10.9636 2.50781 10.7022 2.69657C10.4408 2.88533 10.3311 3.21534 10.1115 3.87536L9.77753 4.87274C9.62465 5.27133 9.34845 5.61043 8.98937 5.84042L8.65249 6.03479C8.23374 6.24994 7.75259 6.30994 7.29398 6.20418L6.07375 5.86048C5.35541 5.65664 4.99625 5.55472 4.67867 5.68388C4.36109 5.81305 4.17445 6.13696 3.80115 6.78479L3.30757 7.64139C2.95766 8.24864 2.7827 8.55227 2.81666 8.87549C2.85061 9.19871 3.08483 9.45918 3.55326 9.98012L4.5843 11.1328C4.8363 11.4518 5.01521 12.0078 5.01521 12.5077C5.01521 13.0078 4.83636 13.5636 4.58433 13.8827L3.55326 15.0354C3.08483 15.5564 2.85062 15.8168 2.81666 16.1401C2.7827 16.4633 2.95766 16.7669 3.30757 17.3741L3.80114 18.2307C4.17443 18.8785 4.36109 19.2025 4.67867 19.3316C4.99625 19.4608 5.35542 19.3589 6.07377 19.155L7.29394 18.8113C7.75263 18.7055 8.23387 18.7656 8.65267 18.9808L8.9895 19.1752C9.34851 19.4052 9.62464 19.7442 9.7775 20.1428L10.1115 21.1403C10.3311 21.8003 10.4408 22.1303 10.7022 22.3191C10.9636 22.5078 11.3108 22.5078 12.0051 22.5078H13.1199C13.8143 22.5078 14.1615 22.5078 14.4228 22.3191C14.6842 22.1303 14.794 21.8003 15.0136 21.1403L15.3476 20.1428C15.5004 19.7442 15.7765 19.4052 16.1356 19.1752L16.4724 18.9808C16.8912 18.7656 17.3724 18.7055 17.8311 18.8113L19.0513 19.155C19.7696 19.3589 20.1288 19.4608 20.4464 19.3316C20.764 19.2025 20.9506 18.8785 21.3239 18.2307L21.8175 17.3741C22.1674 16.7669 22.3423 16.4633 22.3084 16.1401C22.2744 15.8168 22.0402 15.5564 21.5718 15.0354L20.5407 13.8827C20.2887 13.5636 20.1098 13.0078 20.1098 12.5077C20.1098 12.0078 20.2888 11.4518 20.5407 11.1328L21.5718 9.98012C22.0402 9.45918 22.2744 9.19871 22.3084 8.87549C22.3423 8.55227 22.1674 8.24864 21.8175 7.64139Z" stroke="#020202" stroke-width="1.5" stroke-linecap="round"/>
<path d="M16.0195 12.5C16.0195 14.433 14.4525 16 12.5195 16C10.5865 16 9.01953 14.433 9.01953 12.5C9.01953 10.567 10.5865 9 12.5195 9C14.4525 9 16.0195 10.567 16.0195 12.5Z" stroke="#020202" stroke-width="1.5"/>
</svg>
