<svg width="25" height="25" viewBox="0 0 25 25" fill="none" xmlns="http://www.w3.org/2000/svg">
<path d="M12.256 4.94434C17.0303 3.31675 19.4174 2.50296 20.7014 3.78691C21.9853 5.07086 21.1715 7.45801 19.544 12.2323L18.4356 15.4835C17.1857 19.1501 16.5607 20.9834 15.5304 21.1351C15.2535 21.1759 14.9668 21.1514 14.6927 21.0634C13.6735 20.7362 13.1347 18.8032 12.0571 14.9373C11.8181 14.0798 11.6986 13.651 11.4264 13.3235C11.3474 13.2285 11.2598 13.1409 11.1648 13.0619C10.8373 12.7897 10.4085 12.6702 9.55103 12.4312C5.68509 11.3536 3.75212 10.8148 3.42488 9.79557C3.3369 9.52154 3.31235 9.23483 3.35314 8.95785C3.50486 7.92762 5.33817 7.30264 9.00478 6.05268L12.256 4.94434Z" stroke="#020202" stroke-width="1.5"/>
</svg>
