<svg width="25" height="25" viewBox="0 0 25 25" fill="none" xmlns="http://www.w3.org/2000/svg">
<path d="M8.16602 7.5H16.166C18.0516 7.5 18.9944 7.5 19.5802 8.08579C20.166 8.67157 20.166 9.61438 20.166 11.5V15.5C20.166 18.7998 20.166 20.4497 19.1409 21.4749C18.1157 22.5 16.4658 22.5 13.166 22.5H11.166C7.86619 22.5 6.21627 22.5 5.19115 21.4749C4.16602 20.4497 4.16602 18.7998 4.16602 15.5V11.5C4.16602 9.61438 4.16602 8.67157 4.75181 8.08579C5.33759 7.5 6.2804 7.5 8.16602 7.5Z" stroke="#020202" stroke-width="1.5" stroke-linecap="round" stroke-linejoin="round"/>
<path d="M16.166 10C16.166 6.13401 14.3751 2.5 12.166 2.5C9.95688 2.5 8.16602 6.13401 8.16602 10" stroke="#020202" stroke-width="1.5" stroke-linecap="round" stroke-linejoin="round"/>
</svg>
